# xmcd CD database file
#
# Track frame offsets:
#	150
#	24472
#	45832
#	71275
#	94155
#	124680
#	149002
#	173345
#	197942
#	221015
#
# Disc length: 3280 seconds
#
# Revision: 2
# Processed by: cddbd v1.5.1PL2 Copyright (c) Steve Scherf et al.
# Submitted via: CDex 1.51
#
DISCID=870cce0a
DTITLE=Phil Woods Quartet - Woodlore
DYEAR=1955
DGENRE=Jazz
TTITLE0=Woodlore (Take 3)
TTITLE1=Falling In Love All Over Again
TTITLE2=Be My Love
TTITLE3=On A Slow Boat To China (Take 3)
TTITLE4=Get Happy
TTITLE5=Strollin' With Pam
TTITLE6=Woodlore (Take1)
TTITLE7=Woodlore (Take2)
TTITLE8=On A Slow Boat To China (Take1)
TTITLE9=On A Slow Boat To China (Take2)
EXTD=YEAR: 1955
EXTT0=
EXTT1=
EXTT2=
EXTT3=
EXTT4=
EXTT5=
EXTT6=
EXTT7=
EXTT8=
EXTT9=
PLAYORDER=
